<mxfile host="app.diagrams.net" modified="2024-05-17T10:08:47.874Z" agent="Mozilla/5.0 (Windows NT 10.0; Win64; x64) AppleWebKit/537.36 (KHTML, like Gecko) Chrome/124.0.0.0 Safari/537.36" etag="puAi5jWvEvNvJlUXy4FM" version="24.4.3" type="github">
  <diagram name="PÃ¡gina-1" id="wp-lXZZkg_fCKFNzBdp2">
    <mxGraphModel dx="1050" dy="557" grid="1" gridSize="10" guides="1" tooltips="1" connect="1" arrows="1" fold="1" page="1" pageScale="1" pageWidth="827" pageHeight="1169" math="0" shadow="0">
      <root>
        <mxCell id="0" />
        <mxCell id="1" parent="0" />
        <mxCell id="ppEPDfeTmIUH6UXbVkem-1" value="" style="rounded=0;whiteSpace=wrap;html=1;" vertex="1" parent="1">
          <mxGeometry x="60" y="120" width="220" height="360" as="geometry" />
        </mxCell>
        <mxCell id="ppEPDfeTmIUH6UXbVkem-3" value="" style="html=1;whiteSpace=wrap;shape=isoCube2;backgroundOutline=1;isoAngle=15;" vertex="1" parent="1">
          <mxGeometry x="175" y="130" width="90" height="100" as="geometry" />
        </mxCell>
        <mxCell id="ppEPDfeTmIUH6UXbVkem-4" value="" style="html=1;whiteSpace=wrap;shape=isoCube2;backgroundOutline=1;isoAngle=15;" vertex="1" parent="1">
          <mxGeometry x="175" y="240" width="90" height="100" as="geometry" />
        </mxCell>
        <mxCell id="ppEPDfeTmIUH6UXbVkem-6" value="" style="html=1;whiteSpace=wrap;shape=isoCube2;backgroundOutline=1;isoAngle=15;" vertex="1" parent="1">
          <mxGeometry x="175" y="350" width="90" height="100" as="geometry" />
        </mxCell>
        <mxCell id="ppEPDfeTmIUH6UXbVkem-7" value="&amp;lt;&amp;lt;Module&amp;gt;&amp;gt;&lt;br&gt;Charging Stations" style="text;html=1;align=center;verticalAlign=middle;whiteSpace=wrap;rounded=0;" vertex="1" parent="1">
          <mxGeometry x="100" y="160" width="60" height="30" as="geometry" />
        </mxCell>
        <mxCell id="ppEPDfeTmIUH6UXbVkem-8" value="&amp;lt;&amp;lt;Module&amp;gt;&amp;gt;&lt;br&gt;Plans" style="text;html=1;align=center;verticalAlign=middle;whiteSpace=wrap;rounded=0;" vertex="1" parent="1">
          <mxGeometry x="100" y="270" width="60" height="30" as="geometry" />
        </mxCell>
        <mxCell id="ppEPDfeTmIUH6UXbVkem-9" value="&amp;lt;&amp;lt;Module&amp;gt;&amp;gt;&lt;br&gt;HTTP Codes" style="text;html=1;align=center;verticalAlign=middle;whiteSpace=wrap;rounded=0;" vertex="1" parent="1">
          <mxGeometry x="100" y="380" width="60" height="30" as="geometry" />
        </mxCell>
        <mxCell id="ppEPDfeTmIUH6UXbVkem-13" value="FLEX Gateway" style="rounded=1;whiteSpace=wrap;html=1;" vertex="1" parent="1">
          <mxGeometry x="360" y="120" width="80" height="360" as="geometry" />
        </mxCell>
        <mxCell id="ppEPDfeTmIUH6UXbVkem-15" value="Intranet/ &lt;br&gt;Internet" style="ellipse;shape=cloud;whiteSpace=wrap;html=1;" vertex="1" parent="1">
          <mxGeometry x="510" y="240" width="150" height="110" as="geometry" />
        </mxCell>
        <mxCell id="ppEPDfeTmIUH6UXbVkem-16" style="edgeStyle=orthogonalEdgeStyle;rounded=0;orthogonalLoop=1;jettySize=auto;html=1;entryX=0.16;entryY=0.55;entryDx=0;entryDy=0;entryPerimeter=0;" edge="1" parent="1" source="ppEPDfeTmIUH6UXbVkem-13" target="ppEPDfeTmIUH6UXbVkem-15">
          <mxGeometry relative="1" as="geometry" />
        </mxCell>
        <mxCell id="ppEPDfeTmIUH6UXbVkem-17" style="edgeStyle=orthogonalEdgeStyle;rounded=0;orthogonalLoop=1;jettySize=auto;html=1;entryX=0.005;entryY=0.167;entryDx=0;entryDy=0;entryPerimeter=0;" edge="1" parent="1" source="ppEPDfeTmIUH6UXbVkem-3" target="ppEPDfeTmIUH6UXbVkem-13">
          <mxGeometry relative="1" as="geometry" />
        </mxCell>
        <mxCell id="ppEPDfeTmIUH6UXbVkem-18" style="edgeStyle=orthogonalEdgeStyle;rounded=0;orthogonalLoop=1;jettySize=auto;html=1;entryX=0.005;entryY=0.474;entryDx=0;entryDy=0;entryPerimeter=0;" edge="1" parent="1" source="ppEPDfeTmIUH6UXbVkem-4" target="ppEPDfeTmIUH6UXbVkem-13">
          <mxGeometry relative="1" as="geometry" />
        </mxCell>
        <mxCell id="ppEPDfeTmIUH6UXbVkem-19" style="edgeStyle=orthogonalEdgeStyle;rounded=0;orthogonalLoop=1;jettySize=auto;html=1;entryX=0.035;entryY=0.776;entryDx=0;entryDy=0;entryPerimeter=0;" edge="1" parent="1" source="ppEPDfeTmIUH6UXbVkem-6" target="ppEPDfeTmIUH6UXbVkem-13">
          <mxGeometry relative="1" as="geometry" />
        </mxCell>
      </root>
    </mxGraphModel>
  </diagram>
</mxfile>
